<?xml version="1.0" encoding="UTF-8"?>
<svg id="Calque_1" xmlns="http://www.w3.org/2000/svg" version="1.1" viewBox="0 0 841.9 595.3">
  <!-- Generator: Adobe Illustrator 29.2.1, SVG Export Plug-In . SVG Version: 2.1.0 Build 116)  -->
  <defs>
    <style>
      .st0 {
        font-size: 49px;
      }

      .st0, .st1, .st2 {
        fill: #1d1d1b;
        font-family: MyriadPro-Regular, 'Myriad Pro';
      }

      .st1 {
        font-size: 12px;
      }

      .st2 {
        font-size: 26px;
      }

      .st3 {
        fill: none;
        stroke: #1d1d1b;
        stroke-miterlimit: 10;
      }
    </style>
  </defs>
  <path class="st3" d="M483,180.2c-18.5-9.8-39.7-15.4-62.1-15.4s-43.6,5.6-62.2,15.4l-7.4-11.5-72.7-113.9-4.8-7.6c43.1-25.4,93.4-39.9,147-39.9s103.8,14.5,146.9,39.9l-4.8,7.6-72.6,113.9-7.4,11.6Z"/>
  <path class="st3" d="M349.5,185.7l-7.3-11.5-72.6-113.7-4.8-7.6c-78,49.9-130.6,136.1-133.9,234.8h157.7c3.2-42.9,26.7-80.1,61-102Z"/>
  <path class="st3" d="M492.3,185.6l7.3-11.5,72.5-113.8,4.8-7.6c78.1,49.9,130.8,136.1,134.1,234.9h-157.7c-3.2-42.9-26.8-80.1-61.1-102Z"/>
  <path class="st3" d="M553.4,307.6c-.2,2.5-.4,4.9-.8,7.4-2.8,21.6-10.8,41.6-22.8,58.6-7.9,11.4-17.6,21.4-28.7,29.8-2.8,2.2-5.8,4.2-8.8,6.2-2.9,1.9-5.9,3.6-9,5.2-17.6,9.4-37.7,15-58.9,15.5-1.2,0-2.4,0-3.6,0-20.4,0-39.7-4.6-57-12.8-5-2.4-9.8-5-14.4-8-3-1.9-6-4-8.8-6.1-10.1-7.7-19.1-16.8-26.6-27-13.1-17.7-21.9-38.7-24.9-61.6-.3-2.4-.6-4.9-.8-7.4h-157.7c1.8,54.4,18.7,105.1,46.5,147.9,20.7,31.9,47.5,59.4,78.7,81,3,2,5.9,4,9,6,6.6,4.2,13.3,8.1,20.2,11.8,40.5,21.5,86.8,33.7,135.9,33.7s2.4,0,3.6,0c50-.6,96.9-13.8,137.7-36.6,5.1-2.8,10.1-5.8,15-8.9,3-1.9,6-3.9,9-6,32.1-22.2,59.5-50.8,80.4-83.9,26.7-42.2,42.8-91.7,44.6-144.9h-157.7ZM660.2,448.9c-25.3,39.9-60.3,73.1-101.6,96.1-39.8,22.2-85.4,35-134.1,35.6-1.2,0-2.4,0-3.6,0-47.8,0-92.8-11.8-132.2-32.7-42.7-22.6-78.9-55.8-105.1-96.1-25.9-39.8-42.1-86.6-45.2-136.9h142.6c3,24.3,12.2,46.8,26,65.6,13.7,18.7,31.8,33.9,52.9,44.1,18.5,8.9,39.2,13.9,61,13.9s2.4,0,3.6,0c22.7-.6,44.1-6.5,63-16.6,19.8-10.6,36.7-25.8,49.5-44.2,12.6-18.2,21-39.6,23.9-62.7h142.6c-3,49-18.4,94.7-43.2,133.9Z"/>
  <path class="st3" d="M307,380.6l-123.4,71.3c-25.9-39.8-42.1-86.6-45.2-136.9h142.6c3,24.3,12.2,46.8,26,65.6Z"/>
  <path class="st3" d="M359.9,424.7l-71.2,123.2c-42.7-22.6-78.9-55.8-105.1-96.1l123.4-71.3c13.7,18.7,31.8,33.9,52.9,44.1Z"/>
  <path class="st3" d="M424.5,438.5v142.1c-1.2,0-2.4,0-3.6,0-47.8,0-92.8-11.8-132.2-32.7l71.2-123.2c18.5,8.9,39.2,13.9,61,13.9s2.4,0,3.6,0Z"/>
  <path class="st3" d="M558.6,545c-39.8,22.2-85.4,35-134.1,35.6v-142.1c22.7-.6,44.1-6.5,63-16.6l71.1,123.1Z"/>
  <path class="st3" d="M660.2,448.9c-25.3,39.9-60.3,73.1-101.6,96.1l-71.1-123.1c19.8-10.6,36.7-25.8,49.5-44.2l123.3,71.2Z"/>
  <path class="st3" d="M703.5,315c-3,49-18.4,94.7-43.2,133.9l-123.3-71.2c12.6-18.2,21-39.6,23.9-62.7h142.6Z"/>
  <line class="st3" x1="703.5" y1="315" x2="703.5" y2="315"/>
  <text class="st1" transform="translate(194 201.1)"><tspan x="0" y="0">Zone favoris 01</tspan></text>
  <text class="st1" transform="translate(575.3 201.1)"><tspan x="0" y="0">Zone favoris 03</tspan></text>
  <text class="st1" transform="translate(382.7 88)"><tspan x="0" y="0">Zone favoris 02</tspan></text>
  <text class="st1" transform="translate(196.7 358.1)"><tspan x="0" y="0">Chlorofil</tspan><tspan x="-8.1" y="14.4">Article N°01</tspan></text>
  <text class="st1" transform="translate(250.4 458.4)"><tspan x="0" y="0">Chlorofil</tspan><tspan x="-8.1" y="14.4">Article N°02</tspan></text>
  <text class="st1" transform="translate(347.4 511)"><tspan x="0" y="0">Chlorofil</tspan><tspan x="-8.1" y="14.4">Article N°03</tspan></text>
  <text class="st1" transform="translate(455.3 511)"><tspan x="0" y="0">Chlorofil</tspan><tspan x="-8.1" y="14.4">Article N°04</tspan></text>
  <text class="st1" transform="translate(561.3 458.4)"><tspan x="0" y="0">Chlorofil</tspan><tspan x="-8.1" y="14.4">Article N°05</tspan></text>
  <text class="st1" transform="translate(607 358.1)"><tspan x="0" y="0">Chlorofil</tspan><tspan x="-8.1" y="14.4">Article N°06</tspan></text>
  <rect class="st3" x="242.6" y="72" width="28.5" height="28.5" rx="4.6" ry="4.6"/>
  <rect class="st3" x="200.9" y="111.1" width="28.5" height="28.5" rx="4.6" ry="4.6"/>
  <rect class="st3" x="235.7" y="111.1" width="28.5" height="28.5" rx="4.6" ry="4.6"/>
  <rect class="st3" x="270.5" y="111.1" width="28.5" height="28.5" rx="4.6" ry="4.6"/>
  <rect class="st3" x="177" y="150.3" width="28.5" height="28.5" rx="4.6" ry="4.6"/>
  <rect class="st3" x="212.1" y="150.3" width="28.5" height="28.5" rx="4.6" ry="4.6"/>
  <rect class="st3" x="247.2" y="150.3" width="28.5" height="28.5" rx="4.6" ry="4.6"/>
  <rect class="st3" x="282.3" y="150.3" width="28.5" height="28.5" rx="4.6" ry="4.6"/>
  <rect class="st3" x="155.9" y="187" width="28.5" height="28.5" rx="4.6" ry="4.6"/>
  <rect class="st3" x="193.2" y="187" width="28.5" height="28.5" rx="4.6" ry="4.6"/>
  <rect class="st3" x="230.6" y="187" width="28.5" height="28.5" rx="4.6" ry="4.6"/>
  <rect class="st3" x="268" y="186.3" width="28.5" height="28.5" rx="4.6" ry="4.6"/>
  <rect class="st3" x="152.6" y="220.9" width="28.5" height="28.5" rx="4.6" ry="4.6"/>
  <rect class="st3" x="187.7" y="220.9" width="28.5" height="28.5" rx="4.6" ry="4.6"/>
  <rect class="st3" x="222.7" y="220.9" width="28.5" height="28.5" rx="4.6" ry="4.6"/>
  <rect class="st3" x="257.8" y="220.9" width="28.5" height="28.5" rx="4.6" ry="4.6"/>
  <rect class="st3" x="144.1" y="254.8" width="28.5" height="28.5" rx="4.6" ry="4.6"/>
  <rect class="st3" x="179.2" y="254.8" width="28.5" height="28.5" rx="4.6" ry="4.6"/>
  <rect class="st3" x="214.3" y="254.8" width="28.5" height="28.5" rx="4.6" ry="4.6"/>
  <rect class="st3" x="249.4" y="254.8" width="28.5" height="28.5" rx="4.6" ry="4.6"/>
  <path class="st3" d="M359,7.5c-130.9,27.8-230,142.1-234.5,280.2H16.8V7.5h342.1Z"/>
  <path class="st3" d="M831.3,7.5v280.2h-113.8c-4.6-138.1-103.6-252.4-234.5-280.2h348.4Z"/>
  <path class="st3" d="M831.3,307.6v280.2h-348.3c130.9-27.8,229.9-142.1,234.5-280.2h113.8Z"/>
  <path class="st3" d="M358.9,587.8H16.8v-280.2h107.6c4.6,138.1,103.5,252.3,234.5,280.2Z"/>
  <text class="st1" transform="translate(62 121.5)"><tspan x="0" y="0">Flux RSS N°01</tspan></text>
  <text class="st1" transform="translate(714.4 121.5)"><tspan x="0" y="0">Flux RSS N°02</tspan></text>
  <text class="st1" transform="translate(62 487.9)"><tspan x="0" y="0">Flux RSS N°03</tspan></text>
  <text class="st1" transform="translate(714.4 487.9)"><tspan x="0" y="0">Flux RSS N°04</tspan></text>
  <path class="st3" d="M542.4,287.6h-242.9c5.1-62.6,57.5-111.9,121.5-111.9s116.4,49.2,121.5,111.9Z"/>
  <path class="st3" d="M542.4,307.6c-4.6,56.5-47.7,102.1-103,110.5,0-.5.1-1.1.1-1.7,0-8.3-6.7-15-15-15s-15,6.7-15,15,0,1.7.2,2.6c-58.8-5.3-105.5-52.4-110.2-111.3h242.9Z"/>
  <text class="st2" transform="translate(395.2 250.4)"><tspan x="0" y="0">Date</tspan></text>
  <text class="st0" transform="translate(358.9 367.4)"><tspan x="0" y="0">Heure</tspan></text>
  <path class="st3" d="M435.1,416.4c0,.8,0,1.6-.2,2.3-1,4.8-5.3,8.3-10.3,8.3s-8.9-3.2-10.2-7.7c-.3-.9-.4-1.9-.4-2.9,0-5.9,4.7-10.6,10.6-10.6s10.6,4.7,10.6,10.6Z"/>
  <path class="st3" d="M434.9,418.7c-1,4.8-5.3,8.3-10.3,8.3s-8.9-3.2-10.2-7.7c-.3-.9-.4-1.9-.4-2.9,0-5.9,4.7-10.6,10.6-10.6s10.6,4.7,10.6,10.6,0,1.6-.2,2.3Z"/>
  <path class="st3" d="M435.1,416.4c0,.8,0,1.6-.2,2.3-1,4.8-5.3,8.3-10.3,8.3s-8.9-3.2-10.2-7.7c-.3-.9-.4-1.9-.4-2.9,0-5.9,4.7-10.6,10.6-10.6s10.6,4.7,10.6,10.6Z"/>
  <g>
    <line class="st3" x1="420.3" y1="416.4" x2="428.7" y2="416.4"/>
    <line class="st3" x1="424.5" y1="412.2" x2="424.5" y2="420.6"/>
  </g>
</svg>