<?xml version="1.0" encoding="UTF-8" standalone="no"?>
<svg xmlns:dc="http://purl.org/dc/elements/1.1/" xmlns:cc="http://creativecommons.org/ns#" xmlns:rdf="http://www.w3.org/1999/02/22-rdf-syntax-ns#" xmlns:svg="http://www.w3.org/2000/svg" xmlns="http://www.w3.org/2000/svg" xmlns:sodipodi="http://sodipodi.sourceforge.net/DTD/sodipodi-0.dtd" xmlns:inkscape="http://www.inkscape.org/namespaces/inkscape" viewBox="0 0 603.09344 640.00001" version="1.1" id="svg958" inkscape:version="1.0.1 (3bc2e813f5, 2020-09-07)" sodipodi:docname="Kahoot!_(2013)_(Favicon).svg">
  <defs id="defs952"/>
  <sodipodi:namedview id="base" pagecolor="#ffffff" bordercolor="#666666" borderopacity="1.0" inkscape:pageopacity="0.0" inkscape:pageshadow="2" inkscape:zoom="0.80625" inkscape:cx="301.54672" inkscape:cy="320" inkscape:document-units="mm" inkscape:current-layer="layer1" inkscape:document-rotation="0" showgrid="false" inkscape:window-width="1366" inkscape:window-height="706" inkscape:window-x="-8" inkscape:window-y="-8" inkscape:window-maximized="1"/>
  <metadata id="metadata955">
    <rdf:RDF>
      <cc:Work rdf:about="">
        <dc:format>image/svg+xml</dc:format>
        <dc:type rdf:resource="http://purl.org/dc/dcmitype/StillImage"/>
        <dc:title/>
      </cc:Work>
    </rdf:RDF>
  </metadata>
  <g inkscape:label="Layer 1" inkscape:groupmode="layer" id="layer1" transform="translate(-197.98587,23.598499)">
    <g id="g1021" transform="matrix(3.8021026,0,0,3.8021026,-554.7767,66.125417)">
      <path id="polygon8" style="fill:#46178f;fill-opacity:1" transform="matrix(1.2197648,0,0,1.2197675,-31.329919,14.161377)" d="M 260.9,93 242,24.9 270.5,-6.4 250.4,-14.1 211.2,23.3 V -23.4 L 188,-17.5 V 92.2 L 211.2,93 211,54.6 225.3,40.8 240.4,93 Z" class="st0"/>
      <path id="polygon12" style="fill:#46178f;fill-opacity:1" transform="matrix(1.2197648,0,0,1.2197675,-409.4054,14.214293)" d="m 609.7,107 12,-7.1 -5.1,-14.7 h -13.4 l -5.7,13.4 z" class="st0"/>
      <path id="polygon16" style="fill:#46178f;fill-opacity:1" transform="matrix(1.2197648,0,0,1.2197675,-409.4054,14.214293)" d="M 587,-31 612.2,77.5 628,-23.2 Z" class="st0"/>
    </g>
  </g>
  <style type="text/css" id="style2">
	.st0{fill:#000000;}
</style>
</svg>