<?xml version="1.0" encoding="UTF-8"?>
<svg id="Calque_2" data-name="Calque 2" xmlns="http://www.w3.org/2000/svg" viewBox="0 0 39.43 28.93">
  <defs>
    <style>
      .cls-1 {
        fill: #8313dd;
      }

      .cls-2 {
        fill: #9187f6;
      }
    </style>
  </defs>
  <g id="Layer_1" data-name="Layer 1">
    <g>
      <path class="cls-2" d="M13.45.45c.6-.5,1.4-.5,2,.1,1.4,1.4,2.9,2.9,4.3,4.3l-2.1,2.2-2.7-2.7c-.3-.3-.7-.3-1.1-.1l-.1.1c-3.2,3.1-6.3,6.3-9.5,9.5-.3.3-.4.8-.1,1.1l.1.1,9,9c.2.3.5.5.8.7.3.1.7,0,.9-.2l2.6-2.6,2.1,2.2-4,4c-.3.3-.6.5-.9.7-.6.2-1.2,0-1.6-.4C8.95,24.25,4.65,19.95.45,15.75c-.6-.6-.6-1.6,0-2.2H.45C4.85,9.05,9.15,4.75,13.45.45h0Z"/>
      <path class="cls-1" d="M24.05.45c.6-.6,1.6-.6,2.2,0h0l12.7,12.7c.4.4.6,1,.4,1.6-.2.4-.5.7-.8,1l-11.9,12c-.3.3-.6.6-1,.8-.6.2-1.2,0-1.6-.4l-4.3-4.2-2.1-2.1-6.4-6.4c-.6-.6-.6-1.6,0-2.1h0l6.3-6.3,2.2-2.2c1.4-1.5,2.9-2.9,4.3-4.4h0Z"/>
    </g>
  </g>
</svg>